<svg xmlns="http://www.w3.org/2000/svg" viewBox="0 0 9.07 9"><defs><style>.cls-1{fill:#06c4de;}</style></defs><title>gear</title><g id="OBJECTS"><path class="cls-1" d="M7.72,4.91V4.09L7,3.72a2.09,2.09,0,0,0-.17-.41L7,2.57,6.46,2l-.73.26a2.65,2.65,0,0,0-.42-.18L5,1.32H4.13l-.37.75a3.12,3.12,0,0,0-.42.18L2.61,2,2,2.57l.25.74a2.09,2.09,0,0,0-.17.41l-.76.37v.82l.76.37a2.09,2.09,0,0,0,.17.41L2,6.43,2.61,7l.73-.26a3.12,3.12,0,0,0,.42.18l.37.75H5l.36-.75a2.65,2.65,0,0,0,.42-.18L6.46,7,7,6.43l-.25-.74A2.09,2.09,0,0,0,7,5.28ZM6.33,4.5A1.79,1.79,0,1,1,4.54,2.71,1.79,1.79,0,0,1,6.33,4.5Z"/></g></svg>