<svg xmlns="http://www.w3.org/2000/svg" viewBox="0 0 8.93 8.86">
    <defs>
        <style>.cls-1{fill:#fff;}</style>
    </defs>
    <title>money</title>
    <g id="OBJECTS">
        <path class="cls-1" d="M4.46,1.92c-1.24,0-2.83,2.42-2.83,4.44S2.9,8.48,4.46,8.48s2.83-.09,2.83-2.12S5.43,1.92,4.46,1.92Zm.22,5,0,.62H4.2l0-.63c-.52,0-1-.3-1-.83h.85v0c0,.23.26.28.39.28s.38,0,.38-.18c0-.36-1.55,0-1.55-1,0-.55.42-.76.94-.8l0-.63h.52l0,.62c.51,0,1,.26,1,.77H4.8c0-.19-.2-.23-.32-.23s-.33,0-.33.15c0,.35,1.56,0,1.56,1C5.71,6.63,5.25,6.84,4.68,6.89Z" />
        <path class="cls-1" d="M3.94,1.64a1.29,1.29,0,0,1,.52-.13A1.08,1.08,0,0,1,5,1.69,1.28,1.28,0,0,0,5.34.9c0-.3-.59.08-.88.08S3.59.6,3.59.9A1.19,1.19,0,0,0,3.94,1.64Z" />
    </g>
</svg>